<?xml version="1.0" encoding="utf-8"?>
<!-- Generator: Adobe Illustrator 27.7.0, SVG Export Plug-In . SVG Version: 6.00 Build 0)  -->
<svg version="1.1" id="Layer_1" xmlns="http://www.w3.org/2000/svg" xmlns:xlink="http://www.w3.org/1999/xlink" x="0px" y="0px"
	 viewBox="0 0 296.68 281.12" style="enable-background:new 0 0 296.68 281.12;" xml:space="preserve">
<style type="text/css">
	.st0{fill:#FFFFFF;stroke:#FFFFFF;stroke-miterlimit:10;}
</style>
<g>
	<path d="M214.23,201.28v0.44c-9.59,3.49-19.39,3.71-28.55,1.96c-19.6-3.93-33.02-15.28-44.95-40.37
		c-15.34-32.73-10.65-23.35-28.55-61.32l-3.62,66.99c-0.21,5.02,0.85,7.42,3.62,7.42v0.44h-8.95v-0.44h0.21
		c2.77,0,3.41-5.24,3.41-7.42l3.62-70.27c-9.59-20.51-20.45-31.21-34.09-34.26c-8.73-1.96-17.04-1.75-27.48,1.53v-0.44
		c9.59-3.27,19.39-3.49,28.55-1.75c14.91,2.84,25.78,10.04,35.15,24.66h0.21v0.22c2.77,4.58,5.54,9.6,8.31,15.49
		c7.67,16.15,15.55,33.17,23.65,50.41l25.78-65.68l0.21-0.44h11.5v0.44c-2.56,0-4.69,2.18-4.69,4.8c0,0,2.77,51.28,4.05,71.79
		c0.43,6.98,2.77,10.91,4.9,10.91h0.21v0.44h-16.83v-0.44c2.56,0,5.33-3.93,5.11-11.13l-4.05-72.45v-0.22l-25.35,63.94l5.11,10.91
		c9.37,20.08,22.16,32.3,36,35.35C195.48,204.77,203.79,204.55,214.23,201.28z"/>
</g>
</svg>
